<svg xmlns="http://www.w3.org/2000/svg" version="1.1" xmlns:xlink="http://www.w3.org/1999/xlink" xmlns:svgjs="http://svgjs.dev/svgjs" width="355" height="355"><svg version="1.0" viewBox="0 0 355 355" id="SvgjsSvg1035" sodipodi:docname="favicon.svg" inkscape:version="1.3.1 (9b9bdc1480, 2023-11-25, custom)" xmlns:inkscape="http://www.inkscape.org/namespaces/inkscape" xmlns:sodipodi="http://sodipodi.sourceforge.net/DTD/sodipodi-0.dtd" xmlns="http://www.w3.org/2000/svg" xmlns:svg="http://www.w3.org/2000/svg">
  <defs id="SvgjsDefs1034"></defs>
  <sodipodi:namedview id="SvgjsSodipodi:namedview1033" pagecolor="#505050" bordercolor="#ffffff" borderopacity="1" inkscape:showpageshadow="0" inkscape:pageopacity="0" inkscape:pagecheckerboard="1" inkscape:deskcolor="#d1d1d1" inkscape:zoom="1.6253497" inkscape:cx="62.140475" inkscape:cy="185.80617" inkscape:window-width="1920" inkscape:window-height="1016" inkscape:window-x="0" inkscape:window-y="0" inkscape:window-maximized="1" inkscape:current-layer="svg6"></sodipodi:namedview>
  <rect style="fill:#343434;fill-opacity:1;stroke:#0826ac;stroke-width:3.00094;stroke-opacity:0.00185032" id="SvgjsRect1032" width="349.75717" height="349.55042" x="2.7788446" y="2.6223228" ry="62.83728"></rect>
  <g inkscape:groupmode="layer" id="SvgjsG1031" inkscape:label="Layer 1"></g>
  <g transform="matrix(0.08768884,0,0,-0.09223146,4.364452,395.14079)" fill="#fdb54a" stroke="none" id="SvgjsG1030">
    <path d="m 1473,3955 c -15,-11 -23,-28 -25,-58 -3,-42 -3,-42 -46,-45 -106,-8 -84,-122 24,-122 21,0 24,-4 24,-38 0,-25 7,-45 18,-55 42,-38 92,-7 92,56 0,33 3,37 24,37 70,0 112,49 83,94 -13,19 -27,26 -59,28 -43,3 -43,3 -46,45 -3,41 -28,73 -57,73 -6,0 -20,-7 -32,-15 z" id="SvgjsPath1029"></path>
    <path d="m 2410,3843 c -194,-33 -369,-133 -503,-289 -167,-194 -397,-652 -540,-1074 -74,-218 -117,-373 -106,-386 35,-42 287,-138 462,-176 138,-30 438,-33 565,-5 183,40 376,120 500,207 78,54 92,66 92,77 0,5 -36,140 -79,300 -44,161 -90,342 -102,402 -22,110 -22,111 -3,126 41,31 171,78 229,82 76,6 125,-7 200,-54 121,-74 165,-93 221,-93 45,0 55,4 74,28 35,44 24,106 -43,244 -162,330 -408,544 -689,602 -71,15 -217,19 -278,9 z" id="SvgjsPath1028"></path>
    <path d="m 751,3486 c -7,-8 -16,-41 -21,-74 -20,-140 -110,-228 -259,-253 -59,-9 -81,-27 -81,-64 0,-32 29,-52 87,-58 94,-11 185,-73 228,-157 8,-16 19,-57 24,-91 6,-46 14,-67 31,-81 39,-31 90,-2 90,52 0,66 31,133 89,191 59,58 125,89 193,89 32,0 68,31 68,58 0,36 -24,53 -87,62 -80,11 -157,53 -199,109 -35,45 -64,124 -64,172 0,15 -7,35 -16,43 -19,20 -68,21 -83,2 z" id="SvgjsPath1027"></path>
    <path d="m 3122,2677 c -6,-7 -12,-30 -14,-52 -3,-39 -4,-40 -47,-46 -26,-3 -49,-13 -57,-24 -32,-43 -6,-86 57,-94 43,-6 44,-7 47,-46 4,-50 17,-65 53,-65 39,0 59,24 59,71 0,36 2,39 28,39 47,0 69,11 81,38 18,39 -13,76 -67,80 -41,3 -42,4 -42,42 0,22 -7,45 -16,54 -19,19 -67,21 -82,3 z" id="SvgjsPath1026"></path>
    <path d="m 2974,2119 c -15,-25 -174,-132 -266,-180 -115,-59 -293,-119 -428,-145 -140,-26 -388,-25 -541,4 -193,36 -405,113 -543,199 -38,23 -78,43 -87,43 -31,0 -213,-50 -314,-86 -140,-51 -229,-99 -298,-164 -104,-95 -131,-193 -83,-296 52,-112 176,-153 526,-173 190,-12 316,-25 762,-81 l 258,-33 39,41 c 32,33 50,42 98,52 32,6 68,13 81,16 13,3 41,21 63,42 33,31 41,47 50,97 23,130 82,195 179,195 96,0 156,-64 179,-194 16,-90 67,-136 166,-151 28,-4 65,-14 83,-22 32,-15 37,-15 120,17 157,58 292,139 433,257 175,146 213,247 138,358 -59,86 -225,153 -494,199 -107,19 -112,19 -121,5 z" id="SvgjsPath1025"></path>
    <path d="m 2438,1520 c -19,-15 -26,-32 -31,-73 -14,-134 -115,-236 -252,-253 -59,-8 -85,-27 -85,-64 0,-37 21,-52 86,-61 136,-18 236,-119 251,-252 7,-61 26,-87 64,-87 34,0 59,32 59,75 0,128 137,265 265,265 43,0 75,25 75,59 0,36 -28,61 -68,61 -44,0 -131,34 -172,69 -47,39 -89,118 -97,183 -4,35 -14,60 -29,75 -28,28 -35,28 -66,3 z" id="SvgjsPath1024" style="display:inline"></path>
  </g>
</svg><style>@media (prefers-color-scheme: light) { :root { filter: none; } }
@media (prefers-color-scheme: dark) { :root { filter: none; } }
</style></svg>