<?xml version="1.0" encoding="UTF-8" standalone="no"?>
<!-- Created with Inkscape (http://www.inkscape.org/) -->

<svg
   width="68.171448mm"
   height="17.778212mm"
   viewBox="0 0 68.171448 17.778212"
   version="1.1"
   id="svg1"
   xml:space="preserve"
   xmlns="http://www.w3.org/2000/svg"
   xmlns:svg="http://www.w3.org/2000/svg"><defs
     id="defs1" /><g
     id="g48"
     transform="translate(-69.388368,-179.93936)"><path
       id="path47"
       style="fill:#fdb54a;stroke:none"
       d="m 102.97751,179.9409 c -0.23267,0.0169 -0.51393,0.16456 -0.73845,0.308 -0.92416,0.59042 -1.63489,1.38019 -2.10272,2.37091 -0.461538,0.97724 -0.524597,2.41333 0.18345,3.30161 0.78676,0.98706 2.66332,0.88684 3.4153,-0.0847 0.58398,-0.75388 0.69508,-2.0558 0.0139,-2.79363 -0.63923,-0.6925 -1.79656,-0.63019 -2.52595,-0.1695 0.32866,-1.04083 1.1618,-2.07212 2.20142,-2.45515 -0.0301,-0.38035 -0.21431,-0.49438 -0.447,-0.47749 z m 8.72091,0 c -0.23269,0.0169 -0.51445,0.16456 -0.73897,0.308 -0.92416,0.59041 -1.63437,1.38019 -2.10219,2.37091 -0.46156,0.97723 -0.52458,2.41333 0.18345,3.30161 0.78678,0.98706 2.66277,0.88684 3.41477,-0.0847 0.584,-0.75389 0.69586,-2.0558 0.014,-2.79363 -0.63905,-0.6925 -1.79655,-0.63019 -2.52595,-0.1695 0.32867,-1.04083 1.16177,-2.07212 2.20142,-2.45515 -0.03,-0.38035 -0.2138,-0.49438 -0.44649,-0.47749 z m -15.111733,0.008 c -0.305165,0.0151 -0.605877,0.0951 -0.86713,0.24391 -0.977299,0.55654 -1.501248,2.60939 -0.08475,3.01945 v 0.1695 c -1.634668,0.43018 -1.463238,2.68086 0,3.18895 0.799606,0.27764 2.007897,0.13722 2.624646,-0.47955 0.969939,-0.96996 0.420921,-2.49682 -0.76171,-2.96365 0.522079,-0.42592 1.057238,-0.94998 1.015958,-1.69292 -0.05528,-0.99467 -1.01153,-1.53096 -1.927014,-1.48569 z m 20.625613,0.0403 c -0.38313,-0.0752 -0.70473,0.52011 -0.90434,0.76791 -0.774,0.96081 -1.5624,1.91132 -2.32854,2.8789 -0.21528,0.27193 -0.73813,0.80058 -0.28215,1.14256 0.15688,0.11765 0.54733,0.0429 0.7338,0.0429 h 1.86242 v 1.77818 l 1.10071,-0.17001 v -1.60869 l 1.24178,-0.0424 0.19793,-0.88883 h -1.43971 c 0,-0.96911 0.0847,-1.90995 0.0847,-2.87838 0,-0.229 0.10477,-0.79919 -0.0987,-0.94568 -0.0571,-0.0411 -0.11322,-0.0657 -0.16795,-0.0765 z m -20.539313,0.601 c 0.590582,0.084 0.810843,0.89855 0.683679,1.43712 -0.0514,0.21779 -0.100153,0.52414 -0.366903,0.57826 -0.232539,0.0472 -0.445356,-0.18328 -0.592728,-0.32453 -0.41676,-0.39939 -0.931133,-1.48497 0,-1.67896 0.09956,-0.0207 0.19158,-0.0239 0.275952,-0.0119 z m -7.133932,1.01337 -0.663008,0.0429 -0.09922,0.6351 c 0.43102,0.0794 0.659887,0.2276 0.903304,0.59273 0.190482,0.28572 0.824614,0.88977 0.818555,1.24127 -0.0028,0.16292 -0.287098,0.41067 -0.381372,0.5364 -0.232993,0.31065 -0.462001,0.66614 -0.747758,0.93121 -0.410461,0.38072 -0.676961,0.29241 -0.676961,0.93121 h 2.285648 c 0,-0.51749 -0.05639,-0.66343 -0.592729,-0.76223 l 0.677478,-1.01544 h 0.08475 l 0.677478,1.01544 c -0.55955,0.10308 -0.535885,0.27303 -0.677478,0.76223 h 2.624646 l 0.08475,-0.59273 c -0.755869,-0.2387 -1.016431,-0.72973 -1.467611,-1.35444 -0.146557,-0.20293 -0.499286,-0.48938 -0.366902,-0.76171 0.185097,-0.3808 0.670557,-0.97288 0.987536,-1.25574 0.43767,-0.39054 0.677478,-0.26839 0.677478,-0.94568 h -1.523938 l -0.578776,0.0434 -0.183451,0.63459 0.592729,0.0837 -0.676961,0.93121 -0.50798,-0.93121 c 0.483446,-0.0891 0.50798,-0.30819 0.50798,-0.76223 z m 26.670205,0.42323 v 1.86294 h -1.35496 z m -14.14952,1.26866 c 0.69327,0.0832 0.88395,0.95863 0.85679,1.61024 -0.0154,0.37005 -0.11576,0.84944 -0.50798,0.98754 -1.00832,0.35502 -1.2702,-0.86203 -1.2702,-1.58027 0,-0.19563 -0.057,-0.5007 0.0424,-0.67748 0.10019,-0.17811 0.36092,-0.28769 0.55035,-0.32453 0.1204,-0.0234 0.22962,-0.0274 0.32866,-0.0155 z m 8.72091,0 c 0.69329,0.0832 0.88343,0.95863 0.85628,1.61024 -0.0154,0.37005 -0.11576,0.84944 -0.50798,0.98754 -1.00836,0.35502 -1.26969,-0.86203 -1.26969,-1.58027 0,-0.19564 -0.0575,-0.5007 0.0419,-0.67748 0.10018,-0.17811 0.36092,-0.28769 0.55035,-0.32453 0.1204,-0.0234 0.23012,-0.0274 0.32918,-0.0155 z m -3.20755,0.2558 -2.37092,0.16898 -0.0847,0.67748 h 1.77819 l 0.6351,-0.0987 z m -11.430313,0.18293 c 0.198462,-0.0366 0.443611,0.191 0.592728,0.29663 0.61312,0.43429 1.406667,1.59503 0.254248,1.94716 -0.836759,0.25568 -1.472008,-0.67646 -1.298628,-1.41076 0.0571,-0.24201 0.142132,-0.77589 0.451652,-0.83303 z m -0.866097,3.4215 c -0.285037,0.006 -0.584349,0.0618 -0.742074,0.0925 -0.11314,0.022 -0.300145,-0.002 -0.395325,0.0708 -0.570109,0.43669 0.447216,0.78145 0.733806,0.80408 v 3.55586 l -0.01395,1.52445 -0.733805,0.38086 -0.183451,0.6351 h 2.793627 l 0.08475,-0.59273 -0.84646,-0.1695 v -4.40283 c 0,-0.42162 0.172945,-1.32784 -0.04237,-1.69292 -0.09913,-0.16797 -0.369724,-0.21177 -0.65474,-0.20567 z m 40.84918,0.0119 c -0.25954,0.0213 -0.53272,0.0941 -0.69711,0.11007 -0.12591,0.0122 -0.29738,-0.0371 -0.40928,0.0434 -0.1324,0.0953 -0.14003,0.40051 -0.18345,0.55035 l 0.84646,0.25373 0.0847,1.27021 c -0.47611,-0.13782 -0.8678,-0.18772 -1.35496,-0.0863 -1.80052,0.37511 -2.48828,2.88903 -1.49551,4.3186 0.71532,1.03028 2.0859,0.76457 2.85047,0 0.0639,0.60682 0.58944,0.68406 1.10071,0.67696 0.19256,-0.003 0.51099,-7.3e-4 0.6351,-0.18345 0.0953,-0.14025 0.0419,-0.41635 0.0419,-0.57826 -0.18926,-0.0349 -0.43913,-0.0555 -0.59221,-0.18345 -0.33047,-0.27645 -0.1695,-1.1164 -0.1695,-1.50999 v -3.21737 c 0,-0.32684 0.12663,-0.98394 -0.0424,-1.26969 -0.10978,-0.18603 -0.35541,-0.21617 -0.61495,-0.19482 z m -37.144497,2.02313 c -0.618212,0.0565 -1.251108,0.33555 -1.539958,0.71107 -0.558169,0.72564 0.182256,1.10174 0.818555,1.10174 0,-0.27717 -0.03878,-0.67587 0.127124,-0.91829 0.26765,-0.39118 0.757492,-0.0378 0.945162,0.23978 0.22122,0.32722 0.197404,0.72773 0.197404,1.10174 -0.811769,0 -1.830534,0.24693 -2.257743,1.01596 -0.57674,1.03812 0.267064,2.10364 1.411283,1.83348 0.40553,-0.0958 0.674609,-0.36617 1.015959,-0.56379 0.151572,0.52367 0.706731,0.62949 1.185461,0.5364 0.19892,-0.0387 0.39761,0.005 0.50798,-0.19792 0.39165,-0.72399 -0.67008,-0.49752 -0.76223,-1.10071 -0.15684,-1.02643 0.24086,-2.14705 -0.19741,-3.13314 -0.22977,-0.51698 -0.833372,-0.68285 -1.451587,-0.62632 z m 15.825387,0.0248 c -0.30229,0.0238 -0.59593,0.21517 -0.78496,0.43253 -0.13894,0.15978 -0.21607,0.30987 -0.2682,0.50798 h -0.0842 l -0.0992,-0.80408 -1.34048,0.12712 -0.38086,0.0987 -0.0424,0.57826 0.84697,0.1695 v 2.11615 l -0.0424,0.84646 -0.76223,0.36691 -0.12712,0.56534 h 3.21737 v -0.67748 l -1.18545,-0.1695 c 0,-0.6347 -0.15654,-1.5099 0.0284,-2.11718 0.20314,-0.66479 0.73616,-1.02723 1.32653,-0.59222 0.53202,-0.30802 0.73054,-1.1571 0,-1.41076 -0.0991,-0.0344 -0.20103,-0.0447 -0.30179,-0.0367 z m 3.74861,0.008 c -0.13052,-0.006 -0.26387,0.003 -0.39894,0.0295 -0.96903,0.18842 -1.75685,0.67082 -2.08825,1.66501 -0.57616,1.72848 0.59425,3.86028 2.59623,3.4432 1.57068,-0.32727 2.15057,-2.00937 1.79214,-3.4432 -0.21528,-0.86117 -0.98758,-1.65123 -1.90118,-1.69447 z m -9.62732,0.001 c -0.67169,0.056 -1.33431,0.41976 -1.66553,1.01596 -0.36406,0.65534 -0.15839,1.72196 0.56483,2.03192 v 0.0847 c -0.67865,0.26789 -1.09215,1.07611 -0.339,1.52394 v 0.0847 c -0.77874,0.38938 -1.08774,1.36324 -0.25373,1.91926 0.36834,0.24556 0.8446,0.28215 1.26969,0.28215 1.17308,0 2.96441,-0.49953 2.79414,-2.03191 -0.12278,-1.10506 -1.55983,-1.01596 -2.3704,-1.01596 -0.17855,0 -0.87829,0.0286 -0.71985,-0.339 0.12261,-0.28446 0.95422,-0.18714 1.22783,-0.28215 1.06158,-0.36861 1.38996,-1.2585 1.10071,-2.25775 0.16423,0.0821 0.46506,0.25592 0.64905,0.12713 0.17694,-0.12386 0.34184,-0.62164 0.18345,-0.79014 -0.18137,-0.19292 -0.44943,-0.0353 -0.66352,-0.0145 -0.63865,0.0621 -1.14258,-0.39142 -1.77767,-0.33849 z m -16.909559,0.0367 c -0.521269,0.006 -1.067105,0.25484 -1.463477,0.64078 l 0.08475,-0.42374 c -0.395451,-0.22896 -0.835737,-0.0422 -1.269689,0 -0.191844,0.0187 -0.420544,-0.0355 -0.578777,0.11317 -0.501881,0.47179 0.333174,0.72512 0.663009,0.7338 v 5.0798 c -0.581615,0.0153 -0.800207,0.17634 -0.84646,0.76222 h 2.709396 l 0.04237,-0.57877 -0.762227,-0.35244 -0.04237,-1.01595 c 0.384514,0.1113 0.793908,0.12055 1.185457,0.0279 1.756229,-0.41467 2.377974,-2.65282 1.594735,-4.17701 -0.298445,-0.58073 -0.795467,-0.81613 -1.316715,-0.80976 z m 30.332509,0.0176 c -0.3434,-0.0184 -0.80296,0.10023 -1.06195,0.11523 -0.14507,0.008 -0.24817,0.018 -0.31006,0.16899 -0.26499,0.64656 0.57106,0.5125 0.64906,1.01595 0.17339,1.11913 -0.56182,3.69992 1.26969,3.72536 0.20471,0.003 0.39572,0.004 0.59273,-0.0563 0.37714,-0.11524 0.6703,-0.36357 1.01596,-0.5364 v 5.2e-4 c 0.17547,0.83344 1.07778,0.55658 1.69343,0.50798 l 0.0847,-0.67748 -0.7338,-0.2682 -0.11317,-0.83251 v -2.11667 l -0.0987,-0.97358 -0.663,0.0139 -1.10071,0.11317 -0.0847,0.67696 0.84646,0.1695 v 1.86242 c 0,0.2218 0.0636,0.56001 -0.0419,0.76223 -0.12813,0.24558 -0.53172,0.42702 -0.8046,0.42323 -0.28635,-0.004 -0.55803,-0.24581 -0.64906,-0.50798 -0.0859,-0.24731 -0.0284,-0.58775 -0.0284,-0.84646 v -1.77819 c 0,-0.26006 0.0976,-0.73153 -0.16898,-0.88883 -0.0771,-0.0455 -0.17854,-0.0667 -0.29301,-0.0729 z m 6.05028,0.0305 -1.77819,0.25374 0.0424,0.57877 0.67748,0.3669 0.0424,0.66301 v 1.52394 l -0.0424,0.66353 -0.71986,0.2682 -0.0424,0.57826 0.55035,0.0987 h 1.43971 l 0.57826,-0.0424 0.18345,-0.63458 c -0.23404,-0.0431 -0.66477,-0.0476 -0.80409,-0.2682 -0.10289,-0.1629 -0.0424,-0.47848 -0.0424,-0.66353 v -1.35444 c 0,-0.22869 -0.0428,-0.48222 0.0987,-0.67748 0.37893,-0.52292 1.2076,-0.56926 1.55236,0 0.20381,0.33651 0.12661,0.8101 0.12661,1.18546 0,0.42105 0.0237,0.84993 0,1.27021 -0.0291,0.51634 -0.49926,0.2828 -0.71934,0.60668 -0.0953,0.14026 -0.0424,0.41633 -0.0424,0.57826 h 1.77818 l 0.66301,-0.0419 0.18345,-0.6351 c -0.21865,-0.0403 -0.58978,-0.0623 -0.71985,-0.2682 -0.13209,-0.20915 -0.0419,-0.6763 -0.0419,-0.91726 0,-1.06967 0.31723,-3.11058 -1.2702,-3.13263 -0.26661,-0.004 -0.50802,-0.004 -0.76223,0.0848 -0.3178,0.11035 -0.58694,0.29627 -0.84646,0.50798 z m -26.92393,0.0848 c 0,0.18442 -0.0657,0.50687 0.0987,0.63511 0.19128,0.14922 0.43598,0.0502 0.57877,0.2961 0.44055,0.75876 0.64173,1.72244 0.95963,2.5399 0.13479,0.34649 0.42165,0.81247 0.43719,1.18546 0.0115,0.27579 -0.24329,0.66712 -0.46561,0.81855 -0.1852,0.12615 -0.46465,0.15045 -0.67748,0.0848 -0.18017,-0.0551 -0.39134,-0.27155 -0.59273,-0.18345 -0.38778,0.16967 -0.38433,0.86619 -0.15503,1.14308 0.53656,0.64794 1.66388,0.19827 2.0743,-0.339 0.38828,-0.50826 0.54245,-1.12148 0.8046,-1.69343 0.46942,-1.02408 0.84977,-2.09135 1.28364,-3.13263 0.0773,-0.18559 0.16496,-0.43224 0.32453,-0.5643 0.14219,-0.11769 0.35023,-0.1075 0.45165,-0.28216 0.08,-0.13787 0.0424,-0.35539 0.0424,-0.50798 h -2.03192 l -0.0847,0.59273 0.67748,0.16898 -1.01596,2.37092 -0.93121,-2.37092 0.67696,-0.16898 v -0.59273 z m 7.29671,0.48783 c 0.8862,-0.0409 1.19549,1.79401 0.40772,2.03812 -1.03754,0.3215 -1.45354,-1.72954 -0.59272,-2.00401 0.0641,-0.0204 0.12592,-0.0314 0.185,-0.0341 z m 26.00926,0.11472 v 5.2e-4 c 0.38406,0.0614 0.7761,0.31005 0.88522,0.66714 0.11764,0.38501 0.0139,0.95143 0.0139,1.35444 0,0.26537 0.0969,0.76974 -0.0424,1.00201 -0.10341,0.17234 -0.36417,0.27797 -0.55035,0.32452 -1.40458,0.35115 -1.61528,-1.44286 -1.38286,-2.42724 0.0932,-0.39475 0.25987,-0.82434 0.7059,-0.91726 0.11545,-0.024 0.2425,-0.0261 0.37052,-0.004 z m -16.72508,0.0594 c 1.14603,-0.036 1.45095,1.55064 1.2976,2.47065 -0.0677,0.40586 -0.15295,0.91255 -0.60668,1.07228 -1.43169,0.50418 -1.62146,-1.4223 -1.60869,-2.34197 0.006,-0.44518 0.18198,-1.06828 0.67748,-1.17151 0.084,-0.0175 0.16389,-0.0277 0.24029,-0.0294 z m -26.464013,0.10697 c 0.420999,0.0374 0.65232,0.43525 0.753443,0.83974 0.209897,0.83961 0.229018,2.47463 -0.945679,2.5399 -0.177749,0.01 -0.690133,-0.0479 -0.804602,-0.19741 -0.146937,-0.19183 -0.04186,-0.75406 -0.04186,-0.98805 0,-0.87266 -0.295181,-2.01253 0.84646,-2.18695 0.06807,-0.0104 0.132093,-0.0106 0.192236,-0.007 z m 7.93595,1.77095 c 0,0.3051 0.07573,0.72467 -0.01447,1.01596 -0.280659,0.90583 -1.799297,0.37198 -1.072285,-0.50798 0.114067,-0.13809 0.245717,-0.23736 0.409277,-0.31006 0.211362,-0.094 0.451788,-0.15635 0.677478,-0.19792 z m 9.581843,2.1394 c 0.37208,0.0158 0.73943,0.0758 0.91674,0.18914 0.39442,0.25218 0.065,0.88181 -0.25425,1.02991 -0.41423,0.19211 -1.23437,0.2218 -1.60868,-0.0703 -0.28295,-0.22055 -0.44306,-0.92945 0,-1.0728 0.19698,-0.0637 0.5741,-0.0918 0.94619,-0.076 z" /><path
       id="path48"
       style="fill:#fdb54a;stroke:none;stroke-width:0.836424"
       d="m 75.474255,180.28903 c -0.429971,-0.0443 -0.245248,0.36325 -0.436557,0.55455 -0.133394,0.13339 -0.338605,0.0322 -0.472,0.16555 -0.384923,0.38493 0.328368,0.48367 0.554557,0.48367 0,0.13943 -0.0421,0.36131 0.03545,0.48411 0.111396,0.17639 0.384361,0.17639 0.495772,0 0.07756,-0.1228 0.03545,-0.34467 0.03545,-0.48411 0.144586,0 0.366243,0.041 0.495772,-0.0355 0.154718,-0.0914 0.202404,-0.37681 0.04712,-0.49578 -0.134456,-0.10298 -0.325831,0.0165 -0.46033,-0.11801 -0.174618,-0.17461 0.0348,-0.52058 -0.295215,-0.55455 z m 5.201505,0.61334 v 4.3e-4 c -0.126778,0.003 -0.25519,0.0107 -0.385553,0.0233 -1.244258,0.12097 -2.267152,0.95547 -2.997976,1.9122 -0.901576,1.18026 -1.504959,2.60264 -2.053976,3.96575 -0.455849,1.13177 -0.956373,2.32689 -1.179999,3.54086 1.944664,1.33058 4.798781,1.44076 6.93995,0.57833 0.496994,-0.2002 0.976653,-0.42026 1.416432,-0.73178 0.125003,-0.0886 0.326933,-0.1936 0.389442,-0.34233 0.121762,-0.28956 -0.209595,-0.92354 -0.295216,-1.20376 -0.325214,-1.06438 -0.492664,-2.18687 -0.802659,-3.25775 0.627649,-0.23125 1.193148,-0.64178 1.912204,-0.472 0.543054,0.12823 0.937769,0.63658 1.487318,0.74344 0.207826,0.0404 0.538253,0.0609 0.672556,-0.12967 0.14103,-0.20009 0.08578,-0.42462 0.02377,-0.63712 -0.143594,-0.49231 -0.393102,-0.98765 -0.672988,-1.41642 -0.978362,-1.49866 -2.352544,-2.48184 -4.078129,-2.56834 -0.123256,-0.006 -0.248401,-0.008 -0.375178,-0.005 z m -9.13181,1.86638 c -0.0368,0.003 -0.0731,0.0147 -0.106329,0.0337 -0.242271,0.139 -0.213203,0.71473 -0.354,0.95609 -0.32607,0.55898 -0.755304,0.73848 -1.345544,0.86145 -0.172578,0.036 -0.354097,0.14228 -0.342331,0.34233 0.0069,0.11816 0.09304,0.2176 0.20099,0.25977 0.424004,0.16562 0.759362,0.1067 1.132885,0.44865 0.28808,0.26374 0.453579,0.613 0.542886,0.99111 0.02404,0.10185 -0.0038,0.25487 0.05922,0.34233 0.07655,0.10633 0.283635,0.11002 0.389443,0.0471 0.218064,-0.12869 0.179723,-0.65509 0.294784,-0.88521 0.320531,-0.64109 0.84211,-0.78325 1.475647,-0.93232 0.180047,-0.0423 0.239938,-0.15667 0.212227,-0.34233 -0.05266,-0.35277 -0.857326,-0.32776 -1.132886,-0.51913 -0.294924,-0.2048 -0.548736,-0.55238 -0.649215,-0.89687 -0.04869,-0.16693 -0.0081,-0.42068 -0.09423,-0.56666 -0.05715,-0.0969 -0.173171,-0.15117 -0.283545,-0.14005 z m 12.790672,4.38934 v 4.4e-4 c -0.07237,0.006 -0.140381,0.0355 -0.184997,0.0938 -0.102984,0.13446 0.01649,0.32585 -0.118,0.46034 -0.169865,0.16986 -0.554989,0.003 -0.554989,0.36566 0,0.36225 0.385124,0.19625 0.554989,0.36611 0.133412,0.13342 0.03034,0.33993 0.165114,0.472 0.378323,0.37075 0.484101,-0.33624 0.484101,-0.55456 0.131438,0 0.299973,0.0255 0.424887,-0.0233 0.210978,-0.0824 0.287673,-0.3795 0.07089,-0.50745 -0.129527,-0.0764 -0.351185,-0.0359 -0.495773,-0.0359 0,-0.14458 0.04098,-0.36625 -0.03544,-0.49577 -0.04566,-0.0774 -0.140085,-0.12772 -0.237729,-0.13961 -0.02441,-0.003 -0.04893,-0.003 -0.07304,-0.002 z m -0.650946,3.04207 c -0.102257,-0.003 -0.19702,0.009 -0.277493,0.0411 -0.546097,0.21996 -1.027943,0.73501 -1.558204,1.01487 -0.946576,0.49959 -2.058225,0.75861 -3.115976,0.86145 -1.303009,0.12669 -2.690251,-0.19242 -3.894861,-0.66089 -0.493783,-0.19203 -1.0392,-0.70556 -1.557771,-0.75597 -0.30024,-0.0292 -0.633711,0.11757 -0.92066,0.18931 -0.975284,0.24383 -2.283786,0.63606 -2.809088,1.58155 -0.416908,0.75046 0.01568,1.61539 0.825999,1.81797 1.026062,0.25653 2.072186,0.20498 3.115975,0.30647 0.520515,0.0506 1.037401,0.16158 1.558204,0.21222 0.614931,0.0598 1.227323,0.14443 1.841317,0.21265 0.306966,0.0342 0.680536,0.15395 0.991112,0.0592 0.221224,-0.0676 0.352875,-0.29443 0.56666,-0.38945 0.250863,-0.11149 0.549893,-0.0394 0.778885,-0.18888 0.689717,-0.45024 0.281065,-1.65796 1.345546,-1.74666 1.116293,-0.093 0.756515,1.21477 1.345544,1.67577 0.241356,0.18888 0.441789,0.11111 0.708431,0.18888 0.189088,0.0551 0.358425,0.19165 0.566227,0.17723 0.328842,-0.0229 0.705664,-0.25817 0.991545,-0.40112 0.767647,-0.38376 1.489964,-0.83084 2.12443,-1.42854 0.132229,-0.12457 0.231974,-0.27371 0.33066,-0.42489 0.09301,-0.14248 0.147815,-0.2606 0.188886,-0.42488 0.296172,-1.18469 -1.386617,-1.54945 -2.21909,-1.72289 -0.24668,-0.0513 -0.619518,-0.1852 -0.926278,-0.19407 z m -3.061081,3.1981 v 4.2e-4 4.3e-4 c -0.04034,-8.3e-4 -0.08094,0.008 -0.119729,0.0286 v 4.3e-4 c -0.274358,0.14842 -0.216853,0.76871 -0.377773,1.02612 -0.375101,0.60015 -0.86794,0.64333 -1.463544,0.86231 -0.144882,0.0533 -0.247011,0.1787 -0.200989,0.34232 0.06165,0.21921 0.309118,0.19232 0.484102,0.22391 0.239577,0.0432 0.509174,0.15714 0.708,0.29521 0.31189,0.2166 0.513699,0.53662 0.613772,0.89688 0.04161,0.1498 0.0385,0.43079 0.130102,0.55456 0.07802,0.10543 0.282506,0.11003 0.389443,0.0467 0.229568,-0.13549 0.214794,-0.77732 0.377773,-1.02698 0.375284,-0.57492 0.815067,-0.59518 1.392658,-0.79056 0.153986,-0.0521 0.229108,-0.17836 0.212227,-0.34233 -0.0303,-0.29438 -0.882747,-0.34584 -1.132886,-0.51954 -0.555044,-0.38546 -0.519002,-0.84796 -0.731772,-1.39266 -0.04368,-0.11183 -0.160357,-0.2027 -0.281384,-0.20575 z" /></g></svg>
