<svg width="272.4" height="78.8" viewBox="0 0 72.1 20.8" xml:space="preserve" xmlns="http://www.w3.org/2000/svg"><path style="fill:#000;stroke:none" d="M76.6 134.6v.6c.2.2.5.2.6 0v-.6h.7c.2-.2.2-.5 0-.6-.1-.2-.4 0-.5-.2-.2-.2 0-.6-.4-.6-.5 0-.3.4-.5.6-.1.2-.4 0-.6.2-.4.5.4.6.7.6m-1.3 10.6a9.3 9.3 0 0 0 10-.2l.5-.4c.1-.4-.3-1.1-.4-1.5-.3-1.2-.5-2.6-1-3.8.8-.3 1.5-.8 2.4-.6.6.1 1 .8 1.7.9.3 0 .7 0 .9-.2v-.7l-.8-1.7c-1.4-2-3.3-3.3-5.8-3-1.5 0-2.7 1-3.6 2.2-1 1.4-1.8 3.1-2.4 4.7-.6 1.4-1.2 2.8-1.5 4.3m30.2-7a4 4 0 0 1 2.2-2.4c0-.8-.8-.5-1.2-.2-1 .6-1.6 1.4-2.1 2.4s-.5 2.4.2 3.3c.8 1 2.6.9 3.4-.1.6-.8.7-2 0-2.8-.6-.7-1.8-.6-2.5-.2m8.7 0a4 4 0 0 1 2.2-2.4c0-.8-.7-.5-1.2-.2-.9.6-1.6 1.4-2 2.4-.5 1-.6 2.4.1 3.3.8 1 2.7.9 3.4-.1.6-.8.7-2 0-2.8-.6-.7-1.8-.6-2.5-.2m-14.3.4v.1c-1.6.5-1.5 2.7 0 3.2.8.3 2 .2 2.6-.4 1-1 .4-2.5-.7-3 .5-.4 1-1 1-1.7-.1-1.3-1.8-1.8-2.8-1.2-1 .5-1.5 2.6-.1 3m20.7 1.6v1.8l1-.2v-1.6h1.3l.2-1h-1.4v-3.8c-.5-.3-.9.4-1.1.7l-2.4 2.9c-.2.3-.7.8-.2 1.1.1.2.5 0 .7 0h1.9m-20-4.1c.9-.2 1.2.8 1 1.4 0 .2 0 .5-.4.6-.2 0-.4-.2-.5-.4-.5-.4-1-1.4 0-1.6m-28.5.2c-.3.1-.2.8-.4 1.1-.4.7-1 .9-1.6 1-.2 0-.4.2-.4.4s0 .3.2.4c.5.2 1 0 1.4.5.3.3.5.7.6 1.2v.4h.5c.3-.1.3-.7.4-1 .4-.8 1-1 1.8-1.1.2 0 .3-.2.2-.4 0-.5-1-.4-1.3-.7a2 2 0 0 1-.8-1l-.1-.7c-.1-.2-.3-.2-.5-.1m20.8 1.4c.5.1.7.3 1 .6.1.3.8 1 .8 1.3l-.4.5-.8 1c-.4.3-.6.2-.6.9h2.2c0-.5 0-.7-.6-.8l.7-1h.1l.7 1c-.6.1-.6.3-.7.8H98l.1-.6c-.7-.3-1-.7-1.5-1.4-.1-.2-.5-.5-.3-.7l1-1.3c.4-.4.6-.3.6-1h-1.5l-.6.1-.1.6.6.1-.7 1-.5-1c.5 0 .5-.3.5-.7H93v.6m27.4-.2v1.9H119l1.4-2m-14.5 1.4c1-.2 1.2.8 1.2 1.6 0 .3-.1.8-.5 1-1 .3-1.3-.9-1.3-1.6v-.7c.1-.2.4-.3.6-.3m8.7 0c1-.2 1.2.8 1.2 1.6 0 .3-.1.8-.5 1-1 .3-1.3-.9-1.3-1.6v-.7l.6-.3m-5.2.4-.1.7h1.8l.6-.1v-.8l-2.3.2m-9.1 0 .6.3c.6.4 1.4 1.6.2 2-.8.2-1.4-.7-1.2-1.5 0-.2 0-.7.4-.8M88 142.8h.5c.3-.1.4-.5.1-.6H88v-.7c-.1-.1-.5-.2-.6 0l-.1.5c-.2.2-.7 0-.7.5 0 .4.5.2.7.4.1.2 0 .4.2.6.4.4.5-.4.5-.7m11.1.7v5.1l-.7.3-.2.7h2.8v-.6l-.8-.2v-4.4c0-.4.2-1.3 0-1.7-.2-.3-1-.1-1.4 0h-.4c-.6.4.4.8.7.8m40-.3.8.3.1 1.3c-.4-.2-.8-.2-1.3-.1-1.8.3-2.5 2.9-1.5 4.3.7 1 2 .8 2.8 0 0 .6.6.7 1.1.7.2 0 .5 0 .7-.2v-.6c-.2 0-.4 0-.6-.2-.3-.3-.2-1-.2-1.5V144c0-.3.2-1 0-1.3-.2-.3-1 0-1.3 0-.1 0-.3-.1-.4 0-.2 0-.2.4-.2.5m-44.3 2 .1-.4c-.4-.2-.8 0-1.3 0-.2 0-.4 0-.5.2-.6.4.3.7.6.7v5c-.6 0-.8.2-.8.8h2.7v-.5l-.7-.4v-1H96c1.8-.4 2.4-2.6 1.6-4.2-.6-1.1-2-1-2.8-.1m7.7 1 .1-.9c.3-.3.8 0 1 .3.2.3.2.7.2 1-.8 0-1.8.3-2.3 1.1-.5 1 .3 2.1 1.4 1.8.4 0 .7-.3 1-.5.2.5.8.6 1.2.5.2 0 .4 0 .6-.2.3-.7-.7-.5-.8-1-.2-1.1.2-2.2-.2-3.2-.5-1-2.4-.7-3 0-.6.8.2 1.2.8 1.2m9.6 1.2v.1c-.7.3-1.1 1.1-.4 1.5v.1c-.7.4-1 1.4-.2 2 .4.2.8.2 1.3.2 1.1 0 3-.5 2.8-2-.2-1.1-1.6-1-2.4-1-.2 0-.9 0-.7-.4 0-.2 1-.1 1.2-.2 1-.4 1.4-1.3 1.1-2.3.2 0 .5.3.6.1.2 0 .4-.6.2-.8-.2-.2-.4 0-.6 0-.7 0-1.2-.4-1.8-.3-.7 0-1.3.4-1.7 1-.3.7-.1 1.7.6 2m6-2h-.2v-.9l-1.4.1-.4.1v.6l.8.2v3l-.8.3-.1.6h3.2v-.7l-1.2-.2v-2c.2-.7.8-1.1 1.4-.7.5-.3.7-1.1 0-1.4-.4-.1-.9.1-1.1.4l-.3.5m4.4-.9c-1 .2-1.7.7-2 1.7-.6 1.7.5 3.8 2.5 3.4 1.6-.3 2.2-2 1.8-3.4-.2-1-1.2-1.9-2.3-1.7m6.4 4.5c.1.8 1 .5 1.7.5v-.7l-.7-.3-.1-.8v-2.1l-.1-1h-.7l-1 .1-.1.7.8.2V148.3c-.2.3-.6.4-.8.4-.3 0-.6-.2-.7-.5v-2.6c0-.3 0-.7-.2-.9-.3-.2-1 0-1.4 0-.1 0-.2 0-.3.2-.2.7.6.5.7 1 .2 1.2-.6 3.7 1.3 3.8h.6c.3-.2.6-.5 1-.6m2-4.2.1.6.7.4V148.7l-.7.3v.6h2.5l.2-.6c-.2 0-.7 0-.8-.3V146c.4-.5 1.3-.5 1.6 0 .2.4.1.8.1 1.2v1.3c0 .5-.5.3-.7.6v.6h2.4l.2-.7c-.2 0-.6 0-.7-.3-.2-.2 0-.7 0-.9 0-1 .2-3.1-1.3-3.1h-.8l-.9.6v-.6l-1.8.2m-25.2-.1.1.6c.2.1.5 0 .6.3.5.7.7 1.7 1 2.5.1.4.4.8.4 1.2 0 .3-.2.7-.5.8-.1.2-.4.2-.6.1-.2 0-.4-.3-.6-.2-.4.2-.4.9-.2 1.2.6.6 1.7.2 2-.4.5-.5.6-1 .9-1.7l1.3-3c0-.3.1-.5.3-.7.2 0 .4 0 .5-.2v-.5h-2l-.1.6.7.1-1 2.4-1-2.4.7-.1v-.6h-2.5m-19.2.3c-.6.2-1.2.8-1.8 1.2a10.4 10.4 0 0 1-8.4.2c-.6-.2-1.3-.8-1.9-.9l-1 .2c-1.3.3-2.8.8-3.4 2-.5.8 0 1.9 1 2 1.2.4 2.4.3 3.7.5l1.8.2c.8 0 1.5.2 2.2.3.4 0 .8.2 1.2 0 .3 0 .4-.3.7-.4.3-.2.6 0 1-.3.7-.5.3-2 1.5-2 1.4-.2 1 1.4 1.6 2 .3.2.6.1.9.2l.7.2c.4 0 .8-.3 1.1-.5 1-.4 1.8-1 2.6-1.7a2.7 2.7 0 0 0 .6-1c.4-1.4-1.6-1.9-2.6-2-.4-.1-1.1-.4-1.5-.2m26.3.2c1-.3 1.5 1.7.6 2-1 .3-1.4-1.7-.6-2m25.9 0c.4 0 1 .3 1.2.7v2.4c-.1.2-.4.3-.6.3-1.4.4-1.6-1.4-1.3-2.4 0-.4.2-.8.7-1m-16.6.1c1.3-.2 1.7 1.5 1.5 2.5 0 .4-.1.9-.6 1-1.4.6-1.6-1.4-1.6-2.3 0-.4.2-1 .7-1.2m-26.4.1c.5 0 .8.4 1 .9.1.8.1 2.4-1 2.5-.2 0-.7 0-.8-.2-.2-.2 0-.7 0-1 0-.9-.4-2 .8-2.2m8 1.8c0 .3.2.7 0 1-.2 1-1.7.4-1-.5l.4-.3.7-.2M83 148.9c-.3.1-.2.9-.4 1.2-.5.7-1 .8-1.8 1l-.2.4c0 .3.4.3.6.3.3 0 .6.2.8.4.4.2.6.6.8 1l.1.7h.5c.3-.1.2-.9.4-1.2.5-.7 1-.7 1.7-1 .2 0 .3-.1.3-.3 0-.4-1.1-.5-1.4-.7-.7-.4-.6-1-.9-1.6 0-.2-.3-.3-.5-.2m29.4.6c.4-.1 1.5-.1 1.9.1.4.3 0 1-.3 1-.4.2-1.2.3-1.6 0-.3-.2-.4-1 0-1z" transform="translate(-69.8 -133.2)"/></svg>